Coordinates
version=1
nRows=24
nColumns=22
inDegrees=yes

Units are S.I. units (second, meters, Newtons, ...)
If the header above contains a line with 'inDegrees', this indicates whether rotational values are in degrees (yes) or radians (no).

endheader
time	pelvis_tilt	pelvis_list	pelvis_rotation	pelvis_tx	pelvis_ty	pelvis_tz	hip_flexion_r	hip_adduction_r	hip_rotation_r	knee_angle_r	ankle_angle_r	subtalar_angle_r	hip_flexion_l	hip_adduction_l	hip_rotation_l	knee_angle_l	ankle_angle_l	subtalar_angle_l	lumbar_extension	lumbar_bending	lumbar_rotation
      6.46000000	     -0.66401336	     -1.95233673	   -119.94255929	      0.62424986	      1.01030943	      0.37010623	     15.11456807	     -0.41651103	     -5.27218992	    -54.22465062	      7.23558885	      0.15358360	      8.86494309	      1.04317422	      1.05511650	    -16.67864137	      8.26457828	      3.05621067	    -14.73617744	     -4.58302543	     -0.76767305
      6.47000000	     -0.67318656	     -1.95803586	   -120.22584869	      0.62211181	      1.01057202	      0.37484431	     15.68411355	     -0.43814430	     -5.64840030	    -53.03986550	      8.01502737	      0.47563203	      8.42047095	      1.05885607	      0.75054765	    -16.52301377	      8.48680327	      2.76826138	    -14.83053661	     -4.55416799	     -0.96778953
      6.48000000	     -0.65048258	     -1.93870335	   -120.52865990	      0.61994357	      1.01071257	      0.37954565	     16.27286636	     -0.51127912	     -6.07108926	    -51.78537946	      8.72748990	      0.55585658	      8.03399625	      1.08993269	      0.41737765	    -16.40025077	      8.71308735	      2.64042927	    -14.87754363	     -4.53821407	     -1.13906761
      6.49000000	     -0.66464694	     -2.00611299	   -120.88176371	      0.61769861	      1.01097383	      0.38428350	     16.72713767	     -0.63674931	     -6.52964184	    -50.45328286	      9.34394165	      0.74239830	      7.51227354	      1.13812207	      0.06349322	    -16.22855525	      8.96625122	      2.23634393	    -15.02323892	     -4.53017978	     -1.24267784
      6.50000000	     -0.62729610	     -1.99193520	   -121.24457281	      0.61541712	      1.01102046	      0.38895240	     17.27010268	     -0.79149213	     -7.04136129	    -49.07943686	      9.92600137	      0.71918352	      7.13728941	      1.18759436	     -0.31943042	    -16.13066438	      9.21437602	      2.11236343	    -15.05344486	     -4.51926805	     -1.36517120
      6.51000000	     -0.66080063	     -2.05498203	   -121.66644560	      0.61300578	      1.01121729	      0.39362646	     17.66301959	     -0.94089212	     -7.59463216	    -47.62771888	     10.39734967	      0.51692239	      6.61534813	      1.21587383	     -0.72761747	    -15.98013868	      9.50609659	      1.76543158	    -15.19420550	     -4.48340610	     -1.40287987
      6.52000000	     -0.66753657	     -2.07124333	   -122.10228770	      0.61053079	      1.01127404	      0.39824544	     18.09926707	     -1.10571577	     -8.21131664	    -46.15160891	     10.84149431	      0.25991796	      6.18199553	      1.24331896	     -1.15022350	    -15.88695230	      9.80668877	      1.55989973	    -15.26676382	     -4.44204999	     -1.44346352
      6.53000000	     -0.68974668	     -2.08772372	   -122.56481459	      0.60794814	      1.01130373	      0.40281859	     18.50592278	     -1.26153714	     -8.88885547	    -44.64463376	     11.22462745	     -0.06709015	      5.75124258	      1.25477828	     -1.60120839	    -15.82027656	     10.11696940	      1.37957045	    -15.34591585	     -4.38699556	     -1.44654123
      6.54000000	     -0.71104141	     -2.08412424	   -123.04746808	      0.60526067	      1.01126430	      0.40735313	     18.91381972	     -1.39352384	     -9.59140958	    -43.11678322	     11.55999767	     -0.36890330	      5.34551306	      1.25512031	     -2.06251644	    -15.77097752	     10.46235549	      1.24444890	    -15.40078356	     -4.31911827	     -1.44750537
      6.55000000	     -0.75671503	     -2.09321123	   -123.54509124	      0.60247086	      1.01122877	      0.41185528	     19.27860647	     -1.50166447	    -10.35387914	    -41.57241670	     11.78589505	     -0.73891437	      4.92568543	      1.24077401	     -2.53274956	    -15.75109589	     10.79444407	      1.10927593	    -15.48415881	     -4.23985447	     -1.39160025
      6.56000000	     -0.80063343	     -2.07731119	   -124.05200447	      0.59955802	      1.01111643	      0.41629357	     19.65457985	     -1.56015434	    -11.10710865	    -40.02149120	     11.94809621	     -1.00622339	      4.54265260	      1.21013051	     -3.01119737	    -15.76092759	     11.15498808	      1.00753046	    -15.54499134	     -4.15421134	     -1.33927444
      6.57000000	     -0.84941240	     -2.04594233	   -124.56621767	      0.59653165	      1.01095303	      0.42068577	     20.02919129	     -1.56632166	    -11.84255189	    -38.46785989	     12.01098105	     -1.18345287	      4.18406946	      1.16339867	     -3.49368121	    -15.80378025	     11.52294070	      0.92010500	    -15.59629440	     -4.05730981	     -1.27126335
      6.58000000	     -0.93047945	     -2.03642205	   -125.08709241	      0.59339600	      1.01082386	      0.42502721	     20.34845763	     -1.51795390	    -12.56014805	    -36.90667649	     11.94661493	     -1.35407842	      3.79020272	      1.10088919	     -3.97380759	    -15.85951568	     11.87056444	      0.82011253	    -15.69708867	     -3.95082366	     -1.15739602
      6.59000000	     -0.99352012	     -1.95014954	   -125.60406281	      0.59015410	      1.01052811	      0.42926424	     20.74025545	     -1.38548039	    -13.19986904	    -35.35495320	     11.79230892	     -1.31115815	      3.50823011	      0.99941606	     -4.45503672	    -15.97905035	     12.27098410	      0.74228406	    -15.72014084	     -3.81772780	     -1.04953205
      6.60000000	     -1.07280802	     -1.86385181	   -126.12127901	      0.58682086	      1.01021412	      0.43344691	     21.10939975	     -1.20292794	    -13.79864058	    -33.81393304	     11.52617034	     -1.19846769	      3.22964312	      0.88018993	     -4.94335672	    -16.12863144	     12.66437678	      0.65646802	    -15.76180395	     -3.67128748	     -0.90669792
      6.61000000	     -1.20585871	     -1.79981452	   -126.65669345	      0.58332658	      1.00996302	      0.43757043	     21.39327787	     -0.93264685	    -14.28640052	    -32.25477501	     11.22055101	     -0.93396432	      2.87224124	      0.72648906	     -5.42469084	    -16.24302708	     13.07684565	      0.54323287	    -15.86566559	     -3.50045910	     -0.75369136
      6.62000000	     -1.28504634	     -1.67704940	   -127.15949441	      0.57984086	      1.00952190	      0.44165111	     21.76635487	     -0.66869292	    -14.77235899	    -30.75018541	     10.79987662	     -0.70587234	      2.64625709	      0.57971473	     -5.89689357	    -16.44054447	     13.49081087	      0.45397299	    -15.88611558	     -3.32712657	     -0.62780772
      6.63000000	     -1.39066295	     -1.56141731	   -127.66937093	      0.57625358	      1.00907556	      0.44572461	     22.09364750	     -0.36575202	    -15.20057203	    -29.26564222	     10.39523675	     -0.39852947	      2.38603095	      0.41405621	     -6.36920499	    -16.63136369	     13.92766068	      0.35415434	    -15.93335387	     -3.13112686	     -0.48778623
      6.64000000	     -1.52531924	     -1.48460852	   -128.18085535	      0.57257744	      1.00867321	      0.44982495	     22.34476363	     -0.05744755	    -15.59406524	    -27.81086202	     10.06060066	      0.05486945	      2.04690318	      0.25405216	     -6.83122232	    -16.78579532	     14.35074308	      0.24303637	    -16.03482791	     -2.93035380	     -0.36625592
      6.65000000	     -1.62456678	     -1.39451794	   -128.66231644	      0.56891606	      1.00816080	      0.45397317	     22.63541550	      0.19624647	    -16.05974370	    -26.44161491	      9.67339295	      0.38726540	      1.75609281	      0.12011653	     -7.26977196	    -16.97048270	     14.76879515	      0.15238764	    -16.09814709	     -2.73415962	     -0.26380756
      6.66000000	     -1.73392460	     -1.33466972	   -129.12734693	      0.56520447	      1.00765506	      0.45818118	     22.87920705	      0.41846595	    -16.55938153	    -25.13122325	      9.33957724	      0.72517009	      1.41700300	      0.00376962	     -7.68473905	    -17.13630313	     15.17627018	      0.06801610	    -16.19504146	     -2.54175650	     -0.18245108
      6.67000000	     -1.85044693	     -1.32750468	   -129.56988770	      0.56147377	      1.00717864	      0.46250424	     23.06839362	      0.57328430	    -17.13833316	    -23.90492381	      9.03866871	      1.05690672	      1.00785178	     -0.07188321	     -8.07458075	    -17.27404185	     15.56188945	     -0.00582397	    -16.33752722	     -2.36094051	     -0.12438113
      6.68000000	     -1.95283986	     -1.32506548	   -129.97946075	      0.55769815	      1.00664716	      0.46693821	     23.24564081	      0.68624382	    -17.76110768	    -22.73830548	      8.75467637	      1.27958046	      0.59147015	     -0.12590960	     -8.43046058	    -17.39794654	     15.94380775	     -0.06408541	    -16.46048675	     -2.17796865	     -0.12171590
      6.69000000	     -2.05790028	     -1.35761199	   -130.35857721	      0.55385157	      1.00611795	      0.47148009	     23.37475129	      0.75134362	    -18.42971381	    -21.63583636	      8.49043290	      1.44975137	      0.12158820	     -0.15189696	     -8.75785500	    -17.49017803	     16.31320919	     -0.10799154	    -16.60595049	     -2.00571581	     -0.16193101
